<svg xmlns="http://www.w3.org/2000/svg" width="124" height="57" viewBox="0 0 124 57">
  <g fill="none" fill-rule="evenodd">
    <path fill="#428BC1" d="M90.3193194 28.0539751s-5.6693923-4.3784206-14.9211669.5224444c-4.7605707 2.5198854-12.92514366 8.1744199-16.65229612 12.2868283-2.7339956 3.0165943-1.89016628 4.6177301-1.5604862 6.4942031 0 0 24.62761552 7.7602647 33.13394922 7.7602647 8.5074563 0 33.1361944-7.7602647 33.1361944-7.7602647.3175587-1.8048795.2929214-3.7820843-2.2621436-6.6715732-3.7227419-4.2099991-11.0584148-9.5190494-15.952884-12.1094582-9.2506519-4.900865-14.9211668-.5224444-14.9211668-.5224444z"/>
    <path fill="#FFE1BD" d="M91.76192708 53.4762287c8.74096792-5.9378889 12.25599112-5.879465 12.40754922-5.9378889.7723845 1.39093785 1.8793193 5.4412859 2.2340773 7.4052272l-.0179624.0022471c-.7409503 1.8987762-13.02949837 2.9335531-15.191726.8628758-.44232486-.4258202-.58714696-1.5471093.56806188-2.3324612z"/>
    <path fill="#428BC1" d="M116.097653 39.72302186c3.2253791-.68985124 9.9747625 3.16612507 7.2815205 9.03660182-2.3575691 5.14354882-16.6275978 6.15810202-16.9756199 6.18394332-.354758-1.9639413-1.4628155-6.01428935-2.2340773-7.4052272 2.409211-.92354676 9.2528972-7.2400674 11.9281767-7.81531794z"/>
    <path fill="#FFE1BD" d="M88.8789569 53.4762287c-8.7409679-5.9378889-12.2559911-5.879465-12.4064265-5.9378889-.7723845 1.39093785-1.8793193 5.4412859-2.2340773 7.4052272l.0179624.0022471c.7398276 1.8987762 13.0283757 2.9335531 15.1906033.8628758.4434475-.4258202.587147-1.5471093-.5680619-2.3324612z"/>
    <path fill="#428BC1" d="M64.54323096 39.72302186c-3.22425635-.68985124-9.97363978 3.16612507-7.28152044 9.03660182C59.62040222 53.9031725 73.890431 54.9177257 74.2395757 54.943567c.354758-1.9639413 1.4616928-6.01428935 2.2340774-7.4052272-2.412579-.92354676-9.2551426-7.2400674-11.93042214-7.81531794z"/>
    <path fill="#2E6C93" d="M102.7032933 47.1686971s2.7864221 4.7750289 3.7103646 7.7748706c.0763404-3.7896876-.5018254-5.8266588-.9160839-6.86143565 1.9410652-2.19426624 9.5560132-7.754647 10.6101834-8.35798594-4.8105635 1.47520306-13.4044641 7.444551-13.4044641 7.444551zm-24.7657017 0s-2.7875447 4.7750289-3.7103646 7.7748706c-.07746298-3.7896876.5018254-5.8266588.9172066-6.86143565-1.94106516-2.19426624-9.55601322-7.754647-10.61130604-8.35798594 4.81056353 1.47520306 13.40446404 7.444551 13.40446404 7.444551z"/>
    <path fill="#000" d="M105.0552486 5.8205128c4.9116023 0 6.6999868-2.8034188 6.6999868-2.8034188v25.870545c0 7.3097267-5.7737989 7.3108502-5.7693083 7.3097267H73.8309304c.0022453.0011235-4.9475271 0-4.9475271-7.3097267v-9.1646849c0-9.25681496 8.6084951-16.7058601 21.4359161-16.7058601 5.6568343 0 9.824327 2.8034188 14.7359292 2.8034188z"/>
    <path fill="#FFE1BD" d="M109.7333392 30.5381137s-.7016574-3.9526004-.8026961-5.2839908c-.3614939-4.8121057-5.8321768 2.7987287-18.6113237 2.7987287-12.779147 0-18.2498299-7.6108344-18.6124464-2.7987287-.0999161 1.3325139-.8004509 5.2839908-.8004509 5.2839908-4.2615867 0-4.2615867 5.9412595 0 5.9412595 0 7.3681506 11.5543337 10.6983119 19.4128973 10.6983119 7.8596861 0 19.4140198-3.3312849 19.4140198-10.6983119 4.2604641 0 4.2604641-5.9412595 0-5.9412595z"/>
    <path fill="#000" d="M93.445905 43.2138493c-2.0140376 1.5684566-4.2503602 1.5583448-6.2542939 0-.2413702-.186507-.4591647.138195-.2952575.4393027.6107227 1.1190421 1.8445171 2.1178658 3.4218431 2.1178658 1.5784486 0 2.8133658-.9988237 3.4240884-2.1178658.1627845-.3011077-.0550099-.6258097-.2963801-.4393027zM92.8452862 35.8962579c2.7213083 5.1064722 8.1964818 5.1064722 10.9177901 0 .1335955-.2572898-.2189172-.3718904-.6511382-.6651334-2.7280442 2.1324717-7.1389436 1.9369764-9.6132685.0011235-.4333436.2921195-.7858563.4067201-.6533834.6640099zm-15.9697237 0c2.7213082 5.1064722 8.1976044 5.1064722 10.91779 0 .1335956-.2572898-.2189171-.3718904-.6511381-.6651334-2.7280442 2.1324717-7.1389437 1.9369764-9.6132685.0011235-.4310984.2921195-.7858564.4067201-.6533834.6640099z"/>
    <text fill="#000" font-family="KannadaMN, Kannada MN" font-size="70.0854701" transform="translate(-3 -11)">
      <tspan x="0" y="62">ui</tspan>
    </text>
  </g>
</svg>
