<?xml version="1.0" encoding="UTF-8"?>
<svg width="482px" height="93px" viewBox="0 0 482 93" version="1.1" xmlns="http://www.w3.org/2000/svg" xmlns:xlink="http://www.w3.org/1999/xlink">
    <!-- Generator: Sketch 40.3 (33839) - http://www.bohemiancoding.com/sketch -->
    <title>ui-please</title>
    <desc>Created with Sketch.</desc>
    <defs></defs>
    <g id="Page-1" stroke="none" stroke-width="1" fill="none" fill-rule="evenodd">
        <g id="ui-please">
            <g id="please-emoji" transform="translate(386.000000, 1.000000)">
                <path d="M47.9984,35.7233548 C47.9984,35.7233548 39.9184,29.476096 26.7328,36.4687937 C19.9480497,40.06424 8.31192595,48.1322953 3,54 C-0.896481919,58.3041649 0.306140977,60.5887124 0.776,63.266119 C0.776,63.266119 35.8752,74.3386918 47.9984,74.3386918 C60.1232,74.3386918 95.224,63.266119 95.224,63.266119 C95.6765836,60.6908642 95.6414707,57.8697304 92,53.7469231 C86.69436,47.7399732 76.2395821,40.1648647 69.264,36.4687937 C56.08,29.476096 47.9984,35.7233548 47.9984,35.7233548 Z" id="body" fill="#428BC1"></path>
                <g id="arms" transform="translate(0.000000, 52.000000)">
                    <g id="right" transform="translate(48.000000, 0.000000)">
                        <path d="M2.0544,19.9965709 C14.512,11.5242172 19.5216,11.6075781 19.7376,11.5242172 C20.8384,13.508848 22.416,19.2880032 22.9216,22.0902122 L22.896,22.0934184 C21.84,24.8026478 4.3264,26.2790977 1.2448,23.3245948 C0.6144,22.7170221 0.408,21.1171339 2.0544,19.9965709 L2.0544,19.9965709 Z" id="hand" fill="#FFE1BD"></path>
                        <path d="M36.7376,0.373092831 C41.3344,-0.611207108 50.9536,4.89061275 47.1152,13.2667808 C43.7552,20.6057468 23.4176,22.053341 22.9216,22.0902122 C22.416,19.2880032 20.8368,13.508848 19.7376,11.5242172 C23.1712,10.2064737 32.9248,1.19387714 36.7376,0.373092831 L36.7376,0.373092831 Z" id="arm" fill="#428BC1"></path>
                    </g>
                    <g id="left">
                        <path d="M45.9456,19.9965709 C33.488,11.5242172 28.4784,11.6075781 28.264,11.5242172 C27.1632,13.508848 25.5856,19.2880032 25.08,22.0902122 L25.1056,22.0934184 C26.16,24.8026478 43.6736,26.2790977 46.7552,23.3245948 C47.3872,22.7170221 47.592,21.1171339 45.9456,19.9965709 L45.9456,19.9965709 Z" id="hand" fill="#FFE1BD"></path>
                        <path d="M11.2624,0.373092831 C6.6672,-0.611207108 -2.952,4.89061275 0.8848,13.2667808 C4.2464,20.6057468 24.584,22.053341 25.0816,22.0902122 C25.5872,19.2880032 27.1648,13.508848 28.2656,11.5242172 C24.8272,10.2064737 15.0752,1.19387714 11.2624,0.373092831 L11.2624,0.373092831 Z" id="arm" fill="#428BC1"></path>
                    </g>
                </g>
                <g id="shadow" transform="translate(11.200000, 52.353814)" fill="#2E6C93">
                    <path d="M54.448,10.642985 C54.448,10.642985 58.4192,17.4561361 59.736,21.736398 C59.8448,16.3291607 59.0208,13.4227507 58.4304,11.9463008 C61.1968,8.81545747 72.0496,0.88174347 73.552,0.0208817969 C66.696,2.1257447 54.448,10.642985 54.448,10.642985 L54.448,10.642985 Z M19.152,10.642985 C19.152,10.642985 15.1792,17.4561361 13.864,21.736398 C13.7536,16.3291607 14.5792,13.4227507 15.1712,11.9463008 C12.4048,8.81545747 1.552,0.88174347 0.048,0.0208817969 C6.904,2.1257447 19.152,10.642985 19.152,10.642985 L19.152,10.642985 Z" id="Shape"></path>
                </g>
                <path d="M69,4 C76,4 78.5488,0 78.5488,0 C78.5488,0 78.5488,17.509762 78.5488,23.8364101 L78.5488,36.9128508 C78.5488,47.3425827 70.32,47.3441858 70.3264,47.3425827 L24.4992,47.3425827 C24.5024,47.3441858 17.448,47.3425827 17.448,36.9128508 L17.448,23.8364101 C17.448,10.6285156 29.7168,0 47.9984,0 C56.0605024,0 62,4 69,4 Z" id="hair" fill="#000000"></path>
                <path d="M75.6672,39.2677964 C75.6672,39.2677964 74.6672,33.6281104 74.5232,31.7284436 C74.008,24.8623905 66.2112,35.7217517 47.9984,35.7217517 C29.7856,35.7217517 21.9888,24.8623905 21.472,31.7284436 C21.3296,33.6297135 20.3312,39.2677964 20.3312,39.2677964 C14.2576,39.2677964 14.2576,47.7449594 20.3312,47.7449594 C20.3312,58.2580522 36.7984,63.0096239 47.9984,63.0096239 C59.2,63.0096239 75.6672,58.2564491 75.6672,47.7449594 C81.7392,47.7449594 81.7392,39.2677964 75.6672,39.2677964 L75.6672,39.2677964 Z" id="face" fill="#FFE1BD"></path>
                <path d="M52.4544,57.353907 C49.584,59.5918267 46.3968,59.5773989 43.5408,57.353907 C43.1968,57.0877934 42.8864,57.5510876 43.12,57.9807169 C43.9904,59.5773989 45.7488,61.0025498 47.9968,61.0025498 C50.2464,61.0025498 52.0064,59.5773989 52.8768,57.9807169 C53.1088,57.5510876 52.7984,57.0877934 52.4544,57.353907 L52.4544,57.353907 Z" id="mouth" fill="#000000"></path>
                <path d="M51.5984,46.9129534 C55.4768,54.1990173 63.28,54.1990173 67.1584,46.9129534 C67.3488,46.5458448 66.8464,46.3823292 66.2304,45.9639216 C62.3424,49.0065947 56.056,48.7276562 52.5296,45.9655247 C51.912,46.3823292 51.4096,46.5458448 51.5984,46.9129534 L51.5984,46.9129534 Z M28.8384,46.9129534 C32.7168,54.1990173 40.5216,54.1990173 44.3984,46.9129534 C44.5888,46.5458448 44.0864,46.3823292 43.4704,45.9639216 C39.5824,49.0065947 33.296,48.7276562 29.7696,45.9655247 C29.1552,46.3823292 28.6496,46.5458448 28.8384,46.9129534 L28.8384,46.9129534 Z" id="eyes" fill="#000000"></path>
            </g>
            <path d="M37.2,23 L37.2,49.2 C37.2,62.6 29.8,67.8 21,67.8 C12.3,67.8 7.4,62.6 7.4,53.7 L7.4,23 L0.8,23 L0.8,53.7 C0.8,66.2 8.2,74.2 20.4,74.2 C27.5,74.2 33.3,71.5 37.2,65.2 L37.2,73 L43.8,73 L43.8,23 L37.2,23 Z M61.1,12.4 C63.8,12.4 65.9,10.2 65.9,7.6 C65.9,5 63.8,2.8 61.1,2.8 C58.4,2.8 56.3,5 56.3,7.6 C56.3,10.2 58.4,12.4 61.1,12.4 L61.1,12.4 Z M57.8,73 L64.4,73 L64.4,23 L57.8,23 L57.8,73 Z M105.2,21.8 C96.3,21.8 89.2,26.1 85,32.8 L85,23 L78.4,23 L78.4,93 L85,93 L85,63.2 C89.2,69.9 96.3,74.2 105.2,74.2 C119.3,74.2 131,62.8 131,48 C131,33.2 119.3,21.8 105.2,21.8 L105.2,21.8 Z M104.7,67.8 C93.6,67.8 85,59.1 85,48 C85,36.9 93.6,28.2 104.7,28.2 C115.8,28.2 124.4,36.9 124.4,48 C124.4,59.1 115.8,67.8 104.7,67.8 L104.7,67.8 Z M142,73 L148.6,73 L148.6,0 L142,0 L142,73 Z M185.7,21.8 C170.2,21.8 159.6,33.3 159.6,48 C159.6,63.1 170.4,74.2 186.2,74.2 C196.3,74.2 204,69.5 208.2,62.7 L202.4,59.3 C199.7,64.1 194.2,67.8 186.3,67.8 C175.7,67.8 167.8,61.5 166.4,51.3 L210.3,51.3 C210.4,50.3 210.5,49.2 210.5,48.2 C210.5,34.5 201,21.8 185.7,21.8 L185.7,21.8 Z M185.7,28.2 C194.3,28.2 202.3,33.9 203.7,44.9 L166.4,44.9 C167.7,35.1 175.2,28.2 185.7,28.2 L185.7,28.2 Z M264,23 L264,32.8 C259.8,26.1 252.7,21.8 243.8,21.8 C229.7,21.8 218,33.2 218,48 C218,62.8 229.7,74.2 243.8,74.2 C252.7,74.2 259.8,69.9 264,63.2 L264,73 L270.6,73 L270.6,23 L264,23 Z M244.3,67.8 C233.2,67.8 224.6,59.1 224.6,48 C224.6,36.9 233.2,28.2 244.3,28.2 C255.4,28.2 264,36.9 264,48 C264,59.1 255.4,67.8 244.3,67.8 L244.3,67.8 Z M289.8,36.1 C289.8,30.7 295.1,28.2 300.3,28.2 C305.1,28.2 310.2,30.1 312.3,35.2 L317.8,32 C314.9,25.8 308.5,21.8 300.3,21.8 C290.3,21.8 283.2,28.1 283.2,36.1 C283.2,54.5 312.4,47.4 312.4,59.8 C312.4,65.7 306.8,67.8 300.9,67.8 C294.2,67.8 289,64.5 287.2,59.4 L281.6,62.7 C284.1,69.1 290.9,74.2 300.9,74.2 C311.6,74.2 319,68.3 319,59.8 C319,41.4 289.8,48.5 289.8,36.1 L289.8,36.1 Z M351.6,21.8 C336.1,21.8 325.5,33.3 325.5,48 C325.5,63.1 336.3,74.2 352.1,74.2 C362.2,74.2 369.9,69.5 374.1,62.7 L368.3,59.3 C365.6,64.1 360.1,67.8 352.2,67.8 C341.6,67.8 333.7,61.5 332.3,51.3 L376.2,51.3 C376.3,50.3 376.4,49.2 376.4,48.2 C376.4,34.5 366.9,21.8 351.6,21.8 L351.6,21.8 Z M351.6,28.2 C360.2,28.2 368.2,33.9 369.6,44.9 L332.3,44.9 C333.6,35.1 341.1,28.2 351.6,28.2 L351.6,28.2 Z" id="text" fill="#000000"></path>
        </g>
    </g>
</svg>