<svg xmlns="http://www.w3.org/2000/svg" width="447" height="92" viewBox="0 0 447 92">
  <g fill="none" fill-rule="evenodd">
    <path fill="#428BC1" d="M398.9984 38.7233548s-8.08-6.2472588-21.2656.7454389C370.9480497 43.06424 359.31192595 51.1322953 354 57c-3.89648192 4.3041649-2.69385902 6.5887124-2.224 9.266119 0 0 35.0992 11.0725728 47.2224 11.0725728 12.1248 0 47.2256-11.0725728 47.2256-11.0725728.4525836-2.5752548.4174707-5.3963886-3.224-9.5191959-5.30564-6.0069499-15.7604179-13.5820584-22.736-17.2781294-13.184-6.9926977-21.2656-.7454389-21.2656-.7454389z"/>
    <path fill="#FFE1BD" d="M401.0544 74.9965709c12.4576-8.4723537 17.4672-8.3889928 17.6832-8.4723537 1.1008 1.9846308 2.6784 7.763786 3.184 10.565995l-.0256.0032062c-1.056 2.7092294-18.5696 4.1856793-21.6512 1.2311764-.6304-.6075727-.8368-2.2074609.8096-3.3280239z"/>
    <path fill="#428BC1" d="M435.7376 55.37309283c4.5968-.98429994 14.216 4.51751992 10.3776 12.89368797-3.36 7.338966-23.6976 8.7865602-24.1936 8.8234314-.5056-2.802209-2.0848-8.5813642-3.184-10.565995 3.4336-1.3177435 13.1872-10.33034006 17-11.15112437z"/>
    <path fill="#FFE1BD" d="M396.9456 74.9965709c-12.4576-8.4723537-17.4672-8.3889928-17.6816-8.4723537-1.1008 1.9846308-2.6784 7.763786-3.184 10.565995l.0256.0032062c1.0544 2.7092294 18.568 4.1856793 21.6496 1.2311764.632-.6075727.8368-2.2074609-.8096-3.3280239z"/>
    <path fill="#428BC1" d="M362.2624 55.37309283c-4.5952-.98429994-14.2144 4.51751992-10.3776 12.89368797 3.3616 7.338966 23.6992 8.7865602 24.1968 8.8234314.5056-2.802209 2.0832-8.5813642 3.184-10.565995-3.4384-1.3177435-13.1904-10.33034006-17.0032-11.15112437z"/>
    <path fill="#2E6C93" d="M416.648 65.996799s3.9712 6.8131511 5.288 11.093413c.1088-5.4072373-.7152-8.3136473-1.3056-9.7900972 2.7664-3.13084333 13.6192-11.06455733 15.1216-11.925419-6.856 2.1048629-19.104 10.6221032-19.104 10.6221032zm-35.296 0s-3.9728 6.8131511-5.288 11.093413c-.1104-5.4072373.7152-8.3136473 1.3072-9.7900972-2.7664-3.13084333-13.6192-11.06455733-15.1232-11.925419 6.856 2.1048629 19.104 10.6221032 19.104 10.6221032z"/>
    <path fill="#000" d="M420 7c7 0 9.5488-4 9.5488-4v36.9128508c0 10.4297319-8.2288 10.431335-8.2224 10.4297319h-45.8272c.0032.0016031-7.0512 0-7.0512-10.4297319V26.8364101C368.448 13.6285156 380.7168 3 398.9984 3 407.0605024 3 413 7 420 7z"/>
    <path fill="#FFE1BD" d="M426.6672 42.2677964s-1-5.639686-1.144-7.5393528c-.5152-6.8660531-8.312 3.9933081-26.5248 3.9933081s-26.0096-10.8593612-26.5264-3.9933081c-.1424 1.9012699-1.1408 7.5393528-1.1408 7.5393528-6.0736 0-6.0736 8.477163 0 8.477163 0 10.5130928 16.4672 15.2646645 27.6672 15.2646645 11.2016 0 27.6688-4.7531748 27.6688-15.2646645 6.072 0 6.072-8.477163 0-8.477163z"/>
    <path fill="#000" d="M403.4544 60.353907c-2.8704 2.2379197-6.0576 2.2234919-8.9136 0-.344-.2661136-.6544.1971806-.4208.6268099.8704 1.596682 2.6288 3.0218329 4.8768 3.0218329 2.2496 0 4.0096-1.4251509 4.88-3.0218329.232-.4296293-.0784-.8929235-.4224-.6268099zM402.5984 49.9129534c3.8784 7.2860639 11.6816 7.2860639 15.56 0 .1904-.3671086-.312-.5306242-.928-.9490318-3.888 3.0426731-10.1744 2.7637346-13.7008.0016031-.6176.4168045-1.12.5803201-.9312.9474287zm-22.76 0c3.8784 7.2860639 11.6832 7.2860639 15.56 0 .1904-.3671086-.312-.5306242-.928-.9490318-3.888 3.0426731-10.1744 2.7637346-13.7008.0016031-.6144.4168045-1.12.5803201-.9312.9474287z"/>
    <text fill="#000" font-family="KannadaMN, Kannada MN" font-size="100" transform="translate(-5 -17)">
      <tspan x="0" y="89">uiplease</tspan>
    </text>
  </g>
</svg>
