<?xml version="1.0" encoding="UTF-8"?>
<svg width="86px" height="40px" viewBox="0 0 86 40" version="1.1" xmlns="http://www.w3.org/2000/svg" xmlns:xlink="http://www.w3.org/1999/xlink">
    <!-- Generator: Sketch 43.1 (39012) - http://www.bohemiancoding.com/sketch -->
    <title>socials</title>
    <desc>Created with Sketch.</desc>
    <defs></defs>
    <g id="Page-1" stroke="none" stroke-width="1" fill="none" fill-rule="evenodd">
        <g id="socials" fill-rule="nonzero" fill="#FFFFFF">
            <g id="fb">
                <path d="M13.6036765,40 L13.6036765,21.7606178 L19.7338235,21.7606178 L20.6448529,14.6563707 L13.6036765,14.6563707 L13.6036765,10.1158301 C13.6036765,8.06177606 14.175,6.65637066 17.1242647,6.65637066 L20.8919118,6.65637066 L20.8919118,0.293436293 C20.2433824,0.200772201 18.0044118,0.0154440154 15.4102941,0.0154440154 C9.975,0.0154440154 6.26911765,3.33590734 6.26911765,9.42084942 L6.26911765,14.6718147 L0.123529412,14.6718147 L0.123529412,21.7760618 L6.26911765,21.7760618 L6.26911765,40 L13.6036765,40 L13.6036765,40 Z" id="Shape"></path>
            </g>
            <g id="twitter" transform="translate(37.000000, 0.000000)">
                <path d="M48.84026,4.94146341 C47.06548,5.72682927 45.15546,6.25658537 43.15136,6.49365854 C45.1976,5.27414634 46.76658,3.34243902 47.50648,1.03804878 C45.59254,2.16878049 43.47378,2.98926829 41.21684,3.43219512 C39.4107,1.51609756 36.83624,0.31804878 33.98738,0.31804878 C28.518,0.31804878 24.0835,4.73268293 24.0835,10.1785366 C24.0835,10.9502439 24.17072,11.702439 24.34026,12.4253659 C16.10826,12.0136585 8.80922,8.08878049 3.92392,2.12292683 C3.07132,3.57853659 2.58328,5.27219512 2.58328,7.08097561 C2.58328,10.5014634 4.3316,13.52 6.98936,15.2878049 C5.36648,15.2360976 3.83866,14.7921951 2.50292,14.0536585 C2.50194,14.0946341 2.50194,14.1365854 2.50194,14.1785366 C2.50194,18.955122 5.91626,22.9395122 10.44778,23.8468293 C9.61674,24.0712195 8.7416,24.1921951 7.83804,24.1921951 C7.19908,24.1921951 6.57874,24.1307317 5.97408,24.0146341 C7.23534,27.9317073 10.8927,30.7834146 15.22626,30.862439 C11.83644,33.5073171 7.56658,35.0839024 2.9253,35.0839024 C2.1266,35.0839024 1.3377,35.0370732 0.56252,34.9453659 C4.94704,37.7443902 10.1528,39.3756098 15.74566,39.3756098 C33.96484,39.3756098 43.92654,24.3512195 43.92654,11.3209756 C43.92654,10.8936585 43.91772,10.4673171 43.8991,10.0439024 C45.83362,8.65658537 47.51334,6.91902439 48.84026,4.94146341 L48.84026,4.94146341 Z" id="Shape"></path>
            </g>
        </g>
    </g>
</svg>